<svg width="405" height="128" viewBox="0 0 405 128" fill="none" xmlns="http://www.w3.org/2000/svg">
<path fill-rule="evenodd" clip-rule="evenodd" d="M40.981 0.441682H41.0449C41.1869 0.462991 41.3359 0.484304 41.4921 0.512717C55.2116 2.48027 66.2909 12.8081 69.4281 26.1406C69.8042 27.7956 70.1591 29.5643 70.2869 31.2193C67.5756 30.6226 64.8856 30.4166 61.9969 30.509C43.6781 31.1198 29.263 46.0718 29.2133 64.0496C29.2772 64.9375 29.3694 65.8254 29.4901 66.6991C18.6805 64.3338 9.78726 56.7264 5.61389 46.6898L5.48614 46.3772L5.39387 46.1286C3.88919 42.3214 3.08008 38.1874 3.08008 33.8545C3.08008 15.2587 18.1411 0.171783 36.7367 0.171783C38.1775 0.171783 39.5899 0.257002 40.981 0.441682Z" fill="white"/>
<path fill-rule="evenodd" clip-rule="evenodd" d="M61.2457 25.1817L61.6006 25.1604H45.9504V7.41689L27.5465 7.35297V25.1604H9.27734V42.3995H27.9226L27.9794 57.8131C28.7531 40.3964 43.3953 25.7783 61.2457 25.1817Z" fill="white"/>
<path d="M63.105 98.0733C44.4952 98.0733 35.3535 86.8221 35.3535 68.0132C35.3535 48.8562 48.8744 36.2838 65.4756 36.2838C80.9269 36.2838 93.2341 44.637 93.2341 66.1664C93.2341 85.5009 79.9688 98.0733 63.105 98.0733ZM64.2477 51.2286C58.5341 51.2286 52.7567 55.6254 52.7567 66.7914C52.7567 76.892 55.9932 83.0432 63.907 83.0432C69.003 83.0432 75.8522 79.5272 75.8522 66.9619C75.8451 56.5914 72.0621 51.2286 64.2477 51.2286Z" fill="white"/>
<path d="M124.684 98.0733C106.053 98.0733 96.9258 86.8221 96.9258 68.0132C96.9258 48.8562 110.454 36.2838 127.041 36.2838C142.499 36.2838 154.799 44.637 154.799 66.1664C154.799 85.5009 141.534 98.0733 124.684 98.0733ZM125.82 51.2286C120.114 51.2286 114.308 55.6254 114.308 66.7914C114.308 76.892 117.565 83.0432 125.465 83.0432C130.554 83.0432 137.41 79.5272 137.41 66.9619C137.41 56.5914 133.627 51.2286 125.82 51.2286Z" fill="white"/>
<path d="M173.153 97.9881C169.122 97.9881 164.892 97.633 160.945 96.7522L161.833 81.8073C165.076 82.9509 169.995 83.924 174.473 83.924C178.427 83.924 180.975 82.2477 180.975 79.5272C180.975 70.9112 158.852 76.0112 158.852 55.7107C158.852 43.9338 167.894 36.369 183.523 36.369C186.518 36.369 190.634 36.7242 194.325 37.3421L193.452 51.4914C190.024 50.5183 186.525 49.9074 182.912 49.9074C178.349 49.9074 176.411 51.7542 176.411 54.0414C176.411 61.5139 198.548 58.6087 198.548 77.1548C198.534 89.024 188.959 97.9881 173.153 97.9881Z" fill="white"/>
<path d="M230.933 51.5838V96.8445H214.601V51.5838H201.783V37.5197H243.758V51.5838H230.933Z" fill="white"/>
<path d="M283.101 96.8374V73.4612H265.358V96.8374H249.033V37.5126H265.358V59.1343H283.101V37.5126H299.44V96.8374H283.101Z" fill="white"/>
<path d="M333.259 98.0733C314.649 98.0733 305.508 86.8221 305.508 68.0132C305.508 48.8562 319.029 36.2838 335.63 36.2838C351.081 36.2838 363.381 44.637 363.381 66.1664C363.381 85.5009 350.123 98.0733 333.259 98.0733ZM334.402 51.2286C328.688 51.2286 322.904 55.6254 322.904 66.7914C322.904 76.892 326.14 83.0432 334.054 83.0432C339.15 83.0432 345.985 79.5272 345.985 66.9619C345.985 56.5914 342.216 51.2286 334.402 51.2286Z" fill="white"/>
<path d="M385.781 51.5838V61.1658H402.297V74.6119H385.781V96.8445H369.449V37.5197H403.255V51.5838H385.781Z" fill="white"/>
<path d="M6.02646 97.9099C4.12431 97.9099 2.47767 97.8247 0.9375 97.7679V79.5414C2.36411 79.4846 4.59274 79.3994 6.83557 79.3994C12.4923 79.3994 16.0979 81.921 16.0979 88.335C16.0979 94.6212 11.9742 97.9099 6.02646 97.9099ZM6.59426 82.3542C5.77804 82.3542 5.02571 82.3827 4.45791 82.4324V94.7562C4.94054 94.8343 5.67158 94.884 6.38134 94.884C9.80946 94.884 12.3078 92.9449 12.3078 88.6049C12.3078 84.684 10.7605 82.3542 6.59426 82.3542Z" fill="white"/>
<path d="M18.9805 97.7963V79.513H28.9171V82.4608H22.508V86.957H28.5977V89.8267H22.508V94.7846H28.9171V97.7892H18.9805V97.7963Z" fill="white"/>
<path d="M265.571 117.138C265.571 120.32 264.584 122.778 262.611 124.511C260.73 126.166 258.182 126.997 254.967 126.997C254.293 126.997 253.427 126.976 252.369 126.94C251.319 126.905 250.574 126.883 250.141 126.883V107.833C254.051 107.762 255.954 107.719 255.84 107.719C262.327 107.726 265.571 110.866 265.571 117.138ZM262.838 117.294C262.838 112.308 260.425 109.815 255.592 109.815C255.102 109.815 254.151 109.843 252.745 109.9V124.625C253.462 124.738 254.3 124.795 255.258 124.795C257.586 124.795 259.41 124.191 260.73 122.984C262.136 121.684 262.838 119.787 262.838 117.294Z" fill="white"/>
<path d="M272.227 108.856C272.227 109.303 272.064 109.701 271.738 110.028C271.411 110.362 271.007 110.518 270.538 110.518C270.07 110.518 269.672 110.362 269.339 110.042C269.012 109.722 268.842 109.325 268.842 108.856C268.842 108.401 269.005 108.018 269.339 107.698C269.672 107.378 270.07 107.215 270.538 107.215C271.007 107.215 271.411 107.371 271.738 107.684C272.064 107.996 272.227 108.387 272.227 108.856ZM271.801 126.855H269.261V112.833H271.801V126.855Z" fill="white"/>
<path d="M287.253 118.473C287.253 118.793 287.225 119.198 287.168 119.688H278.005C277.891 123.239 279.368 125.022 282.427 125.022C283.932 125.022 285.294 124.738 286.515 124.17L286.742 126.23C285.351 126.812 283.768 127.104 282.008 127.104C277.593 127.104 275.379 124.703 275.379 119.908C275.379 117.742 275.94 115.98 277.054 114.616C278.175 113.253 279.701 112.571 281.639 112.571C283.52 112.571 284.946 113.153 285.926 114.318C286.813 115.362 287.253 116.747 287.253 118.473ZM284.663 117.884C284.698 116.847 284.428 116.016 283.86 115.383C283.286 114.751 282.512 114.439 281.533 114.439C280.631 114.439 279.872 114.751 279.261 115.383C278.651 116.016 278.268 116.847 278.119 117.884H284.663Z" fill="white"/>
<path d="M297.943 112.585L297.829 115.064C297.545 115.007 297.275 114.979 297.013 114.979C294.642 114.979 293.457 117.053 293.457 121.215V126.855H290.916V112.833H293.372C293.372 113.998 293.265 115.106 293.059 116.158H293.116C293.847 113.75 295.267 112.549 297.375 112.549C297.566 112.549 297.751 112.564 297.943 112.585Z" fill="white"/>
<path d="M311.585 118.473C311.585 118.793 311.557 119.198 311.5 119.688H302.337C302.223 123.239 303.7 125.022 306.759 125.022C308.263 125.022 309.626 124.738 310.847 124.17L311.067 126.23C309.676 126.812 308.1 127.104 306.333 127.104C301.918 127.104 299.711 124.703 299.711 119.908C299.711 117.742 300.272 115.98 301.386 114.616C302.507 113.253 304.033 112.571 305.971 112.571C307.852 112.571 309.278 113.153 310.258 114.318C311.145 115.362 311.585 116.747 311.585 118.473ZM308.995 117.884C309.03 116.847 308.76 116.016 308.193 115.383C307.618 114.751 306.844 114.439 305.865 114.439C304.963 114.439 304.204 114.751 303.593 115.383C302.983 116.016 302.607 116.847 302.451 117.884H308.995Z" fill="white"/>
<path d="M326.703 126.855H324.162V117.777C324.162 115.682 323.36 114.638 321.763 114.638C320.613 114.638 319.662 115.156 318.91 116.193C318.157 117.23 317.781 118.53 317.781 120.1V126.855H315.24V112.833H317.696C317.696 114.055 317.618 115.035 317.469 115.767L317.526 115.795C318.427 113.629 320.074 112.549 322.458 112.549C325.276 112.549 326.689 114.041 326.689 117.039V126.855H326.703Z" fill="white"/>
<path d="M341.366 126.855H338.967C338.967 125.52 339.01 124.589 339.109 124.063H339.052C338.697 124.944 338.094 125.676 337.25 126.251C336.405 126.827 335.418 127.111 334.29 127.111C333.105 127.111 332.161 126.805 331.458 126.194C330.755 125.583 330.4 124.731 330.4 123.644C330.4 122.103 331.146 120.881 332.643 119.972C334.134 119.07 336.199 118.615 338.832 118.615V117.571C338.832 116.556 338.598 115.803 338.13 115.312C337.661 114.822 336.873 114.581 335.759 114.581C334.219 114.581 332.814 114.964 331.529 115.739L331.273 113.565C332.892 112.89 334.524 112.549 336.178 112.549C338.08 112.549 339.45 112.983 340.294 113.849C341.004 114.602 341.366 115.732 341.366 117.237V122.82C341.366 123.893 341.366 125.243 341.366 126.855ZM338.825 120.647V120.391C334.858 120.391 332.877 121.315 332.877 123.154C332.877 123.737 333.069 124.206 333.459 124.561C333.843 124.923 334.368 125.093 335.028 125.093C336.114 125.093 337.037 124.625 337.789 123.687C338.477 122.813 338.825 121.798 338.825 120.647Z" fill="white"/>
<path d="M353.175 112.585L353.061 115.064C352.778 115.007 352.501 114.979 352.245 114.979C349.875 114.979 348.689 117.053 348.689 121.215V126.855H346.148V112.833H348.604C348.604 113.998 348.498 115.106 348.292 116.158H348.349C349.08 113.75 350.499 112.549 352.607 112.549C352.799 112.549 352.983 112.564 353.175 112.585Z" fill="white"/>
<path d="M363.211 126.798C362.324 126.983 361.422 127.082 360.507 127.082C359.094 127.082 358.122 126.763 357.575 126.13C357.029 125.498 356.759 124.411 356.759 122.863V114.773H353.885V112.826H356.759V108.28L359.293 107.577V112.826H363.218V114.773H359.293V121.961C359.293 123.133 359.435 123.914 359.705 124.312C359.974 124.71 360.507 124.909 361.295 124.909C361.898 124.909 362.53 124.823 363.211 124.653V126.798Z" fill="white"/>
<path d="M374.802 122.657C374.802 123.957 374.276 125.015 373.219 125.846C372.112 126.692 370.642 127.118 368.818 127.118C367.725 127.118 366.739 127.033 365.859 126.862L365.944 124.61C366.938 124.93 367.96 125.093 369.017 125.093C369.954 125.093 370.713 124.895 371.288 124.497C371.863 124.099 372.147 123.58 372.147 122.941C372.147 122.11 371.586 121.485 370.458 121.052C369.422 120.654 368.378 120.27 367.328 119.894C366.199 119.233 365.639 118.203 365.639 116.79C365.639 115.568 366.128 114.56 367.122 113.771C368.109 112.983 369.486 112.585 371.253 112.585C372.097 112.585 372.992 112.677 373.929 112.869L373.872 114.986C372.935 114.687 371.991 114.531 371.054 114.531C369.195 114.531 368.265 115.199 368.265 116.534C368.265 117.365 368.825 117.997 369.954 118.452C371.011 118.85 372.062 119.255 373.112 119.667C374.234 120.32 374.802 121.315 374.802 122.657Z" fill="white"/>
<path d="M389.267 118.473C389.267 118.793 389.238 119.198 389.182 119.688H380.019C379.905 123.239 381.381 125.022 384.44 125.022C385.945 125.022 387.308 124.738 388.529 124.17L388.756 126.23C387.365 126.812 385.789 127.104 384.022 127.104C379.6 127.104 377.393 124.703 377.393 119.908C377.393 117.742 377.953 115.98 379.068 114.616C380.189 113.253 381.715 112.571 383.653 112.571C385.533 112.571 386.96 113.153 387.94 114.318C388.827 115.362 389.267 116.747 389.267 118.473ZM386.669 117.884C386.705 116.847 386.435 116.016 385.867 115.383C385.292 114.751 384.519 114.439 383.539 114.439C382.638 114.439 381.878 114.751 381.275 115.383C380.657 116.016 380.281 116.847 380.132 117.884H386.669Z" fill="white"/>
<path d="M404.377 126.855H401.836V117.777C401.836 115.682 401.034 114.638 399.437 114.638C398.288 114.638 397.344 115.156 396.591 116.193C395.839 117.23 395.463 118.53 395.463 120.1V126.855H392.922V112.833H395.378C395.378 114.055 395.307 115.035 395.15 115.767L395.207 115.795C396.109 113.629 397.755 112.549 400.14 112.549C402.958 112.549 404.37 114.041 404.37 117.039V126.855H404.377Z" fill="white"/>
</svg>
