<?xml version="1.0" encoding="utf-8"?>
<!-- Generator: Adobe Illustrator 26.0.3, SVG Export Plug-In . SVG Version: 6.00 Build 0)  -->
<svg version="1.1" id="Layer_1" xmlns="http://www.w3.org/2000/svg" xmlns:xlink="http://www.w3.org/1999/xlink" x="0px" y="0px"
	 viewBox="0 0 245 72" style="enable-background:new 0 0 245 72;" xml:space="preserve">
<style type="text/css">
	.st0{fill:#FFFFFF;}
</style>
<g>
	<polygon class="st0" points="185.3422089,22.0007229 169.9015198,22.0007229 169.9015198,50.3966866 185.3422089,50.3966866 
		185.3422089,46.6306763 173.9312286,46.6306763 173.9312286,37.3284683 185.1539459,37.3284683 185.1539459,33.5624542 
		173.9312286,33.5624542 173.9312286,25.7667332 185.3422089,25.7667332 	"/>
	<polygon class="st0" points="153.9136505,22.0007229 149.884079,22.0007229 149.884079,50.3966866 162.8392029,50.3966866 
		162.8392029,46.6306763 153.9136505,46.6306763 	"/>
	<polygon class="st0" points="133.9915466,22.0007229 129.9618378,22.0007229 129.9618378,50.3966866 142.917099,50.3966866 
		142.917099,46.6306763 133.9915466,46.6306763 	"/>
	<polygon class="st0" points="123.0247192,22.0007229 107.5840149,22.0007229 107.5840149,50.3966866 123.0247192,50.3966866 
		123.0247192,46.6306763 111.6135864,46.6306763 111.6135864,37.3284683 122.8364563,37.3284683 122.8364563,33.5624542 
		111.6135864,33.5624542 111.6135864,25.7667332 123.0247192,25.7667332 	"/>
	<polygon class="st0" points="81.3316956,25.7667332 94.4752197,25.7667332 79.7122498,50.3966866 100.6138458,50.3966866 
		100.6138458,46.6306763 86.4535828,46.6306763 101.1787643,22.0007229 81.3316956,22.0007229 	"/>
	<path class="st0" d="M63.3301468,20.4942627l-13.4825592,29.902401h4.217823l3.0508041-6.7788162h12.3902626l3.0503311,6.7788162
		h4.2558899L63.3301468,20.4942627z M58.7729759,39.8516998l4.4814949-10.0552807h0.075676l4.5190887,10.0552807H58.7729759z"/>
	<path class="st0" d="M48.2653961,36.010376H36.5907021v3.5024452h7.6073303
		c-0.7908287,4.3685799-4.6321449,7.5320244-9.565773,7.5320244c-5.8749313,0-10.3565998-4.7074471-10.3565998-10.8462105
		c0-6.138628,4.4816685-10.8462086,10.3189487-10.8462086c3.8791008,0,7.0425453,1.92066,8.9632034,4.9334927l3.1634445-2.1089153
		c-2.5608749-4.0297165-6.8918037-6.6282425-12.1266479-6.6282425C26.3469257,21.5487614,20,28.064043,20,36.1986351
		c0,8.1347275,6.4976673,14.650013,14.7830009,14.650013c7.6826324,0,13.5576973-5.9880219,13.5576973-13.4072266
		C48.3406982,36.9519501,48.3783493,36.5752907,48.2653961,36.010376"/>
	<g>
		<path class="st0" d="M209.0004883,20C200.1636658,20,193,27.1634769,193,36c0,2.3986282,0.5432129,4.6655312,1.4886322,6.7078323
			c2.8105621-1.5460854,6.29245-4.7479057,7.2428284-6.9137611c0.516983-1.0444946,0.3151398-2.3452606-0.280014-3.2211151
			c0,0,2.7957001,0.6753044,5.6878815,0.6753044c2.2727814,0,3.8336487-0.0950508,4.478775-0.310936
			c-0.2755585-1.2934055-0.710434-2.5288639-1.5292053-3.8551693l-0.6950989-0.1388321l-0.9380035,0.264555
			c0,0-0.775238-0.3986263-1.6123199-0.6487732c-0.173645-0.0524406-0.2048187-0.1516342,0.0756989-0.2456951
			c0.2725983-0.0876274,1.1057129-0.3589249,1.1057129-0.3589249c-1.8517609-0.4974499-3.5452118-1.1420174-5.1981049-2.2218227
			c-0.1014252-0.0663567-0.1568298-0.1912136-0.098938-0.2934361c0.0499573-0.0889282,0.1405029-0.1443367,0.3260193-0.0704365
			c3.3735504,1.3444843,6.0119324,2.1132298,11.5172729,2.6612034l0.1137848,0.6151943c0,0-0.509079,0.3531742-2.3019714,0.7670765
			c1.347641,1.7460804,2.2816925,3.288641,3.208313,6.4582424c1.150238-0.9098053,2.1827393-1.6014366,3.0173492-2.0071144
			c0.6871796-0.3339386,1.3995819,0.4929962,1.2744141,0.8861847c-0.4427795,1.4174576-2.1001129,5.8625259-2.7398071,7.4687843
			c-0.2290497-0.5102501-0.5501404-0.9952087-0.9429474-1.4481926l2.4207001-5.6034775
			c-1.4099731,1.3512878-2.3133392,2.3461876-3.9766235,4.2528076c-1.3768311-0.9251404-3.0326843-1.4446678-4.6568756-1.7255478
			c-3.2434387-0.5617638-6.5897675,0.2629471-9.3330383,2.0863914c-1.910141,1.2691612-3.6303101,2.8171043-5.2218628,4.6712837
			C198.2589569,48.9783859,203.2705536,52,209.0004883,52C217.8368378,52,225,44.836525,225,36S217.8368378,20,209.0004883,20z"/>
	</g>
</g>
</svg>
