<?xml version="1.0" encoding="utf-8"?>
<!-- Generator: Adobe Illustrator 28.2.0, SVG Export Plug-In . SVG Version: 6.00 Build 0)  -->
<svg version="1.1" id="Laag_1" xmlns="http://www.w3.org/2000/svg" xmlns:xlink="http://www.w3.org/1999/xlink" x="0px" y="0px"
	 viewBox="0 0 475.39 336.13" style="enable-background:new 0 0 475.39 336.13;" xml:space="preserve">
<style type="text/css">
	.st0{fill:#FFFFFF;}
</style>
<g>
	<path class="st0" d="M29.72,135.16c0-11.64,7.97-20.21,20.83-20.21h2.44v11.63h-0.6c-6.12,0-9.2,3.06-9.2,8.58v60.6H29.72V135.16z"
		/>
	<path class="st0" d="M62.79,158.41c0-6.74-3.68-8.57-8.58-8.57h-1.22V138.2h2.46c11.63,0,20.83,6.13,20.83,20.21v37.34H62.79
		V158.41z"/>
	<path class="st0" d="M87.26,175.55v-17.12c0-11.03,9.21-20.24,22.66-20.24c13.47,0,22.05,9.21,22.05,20.24v14.06h-31.84v3.06
		c0,6.75,5.38,10.41,11.64,10.41c5.5,0,9.79-1.23,13.45-3.67l4.29,9.79c-6.73,4.29-12.86,4.9-18.36,4.9
		C96.47,196.99,87.26,189.04,87.26,175.55 M119.1,162.08v-3.06c0-6.74-3.05-9.81-9.18-9.81s-9.79,3.07-9.79,9.81v3.06H119.1z"/>
	<path class="st0" d="M142.99,176.78v-36.75h13.48v36.75c0,6.74,3.65,8.57,8.57,8.57h1.21v11.64h-2.44
		C152.17,196.98,142.99,190.87,142.99,176.78"/>
	<path class="st0" d="M166.25,208.62h0.63c6.11,0,9.17-3.06,9.17-8.59v-59.99h13.47v59.99c0,11.65-7.95,20.22-20.8,20.22h-2.46
		V208.62z"/>
	<path class="st0" d="M204.22,140.03h9.79l1.83,3.68c1.84-2.45,7.35-5.52,13.49-5.52c6.11,0,11.63,1.83,14.68,6.13
		c3.65-3.66,8.56-6.13,14.7-6.13c15.91,0,21.41,10.43,21.41,19.58v37.98h-13.48v-37.98c0-4.26-2.42-8.56-8.55-8.56
		c-6.12,0-9.2,3.7-9.2,8.56v37.98h-13.45v-37.98c0-4.26-2.46-8.56-8.56-8.56c-6.14,0-9.2,3.7-9.2,8.56v37.98h-13.47V140.03z"/>
	<path class="st0" d="M289.93,178c0-9.8,7.96-17.77,22.66-17.77h9.18v-1.2c0-3.69-1.83-9.81-10.39-9.81
		c-4.31,0-7.36,0.62-11.64,2.46l-3.69-9.79c7.33-3.69,11.64-3.69,16.54-3.69c12.86,0,22.03,6.13,22.03,20.83v36.72h-9.18l-1.84-4.28
		c-1.84,2.45-6.73,5.51-12.86,5.51C299.12,196.98,289.93,191.48,289.93,178 M321.77,176.78v-6.75h-9.18c-5.52,0-9.81,2.46-9.81,7.97
		c0,6.12,3.67,8.58,8.59,8.58C318.11,186.58,321.77,182.9,321.77,176.78"/>
	<path class="st0" d="M348.71,140.03h9.81l1.83,3.68c1.83-2.45,6.74-5.52,12.86-5.52c14.68,0,20.2,9.2,20.2,20.22v37.33h-13.48
		v-37.98c0-4.87-2.44-8.56-8.56-8.56c-6.14,0-9.2,3.7-9.2,8.56v37.98h-13.47V140.03z"/>
	<path class="st0" d="M401.38,189.04l6.73-9.21c3.66,4.9,10.41,6.75,15.29,6.75c5.51,0,9.2-1.84,9.2-6.75
		c0-4.29-2.61-5.69-7.97-7.34l-7.95-2.46c-6.9-2.29-12.85-6.72-12.85-15.29c0-11.03,9.78-16.55,20.19-16.55
		c9.18,0,15.29,3.69,19.58,7.97l-7.95,7.96c-2.45-2.44-6.13-5.5-11.64-5.5c-4.89,0-7.34,1.83-7.34,5.5c0,3.67,3.36,4.75,7.34,6.1
		l7.95,2.45c7.96,2.47,13.49,7.36,13.49,16.55c0,11.02-7.98,17.75-22.68,17.75C414.23,196.98,406.26,194.54,401.38,189.04"/>
	<rect x="142.99" y="114.95" class="st0" width="46.53" height="11.63"/>
</g>
</svg>
