<?xml version="1.0" encoding="utf-8"?>
<!-- Generator: Adobe Illustrator 28.2.0, SVG Export Plug-In . SVG Version: 6.00 Build 0)  -->
<svg version="1.1" id="Laag_1" xmlns="http://www.w3.org/2000/svg" xmlns:xlink="http://www.w3.org/1999/xlink" x="0px" y="0px"
	 viewBox="0 0 2500 2500" style="enable-background:new 0 0 2500 2500;" xml:space="preserve">
<style type="text/css">
	.st0{fill:#FFFFFF;}
	.st1{fill-rule:evenodd;clip-rule:evenodd;fill:#FFFFFF;}
</style>
<g>
	<g>
		<path class="st0" d="M2149.79,813.3L2149.79,813.3c-392.69-296.26-973.3-336.05-1439.62-189.68
			c-232.5,79.57-516.68,235.86-589.01,525.72c-47.79,221.67,67.82,414.89,232.51,539.93c380.4,283.45,924.2,328.21,1385.34,204.6
			c260.29-77.44,587.09-247.2,646.52-577.58C2413.28,1106.71,2300.29,932.66,2149.79,813.3z M2365.52,1297.09
			c-40.05,297.67-331.97,467.47-559.98,549.17c-462.4,154.17-1048.2,112.98-1441.52-179.02
			c-156.3-123.61-271.26-306.2-218.31-521.48c74.28-267.83,335.2-414.19,551.55-490.92c457.27-152.02,1040.46-117.19,1432.52,173.37
			C2272.5,937.62,2383.6,1098.89,2365.52,1297.09z"/>
	</g>
	<path class="st1" d="M2045.8,819.69L2045.8,819.69c-372.01-236.58-908.71-265-1329.8-125.74
		c-215.71,76.02-490.21,223.79-540.58,502.99c-33.58,220.94,135.62,394.28,292.57,492.32
		c365.54,220.95,886.11,260.03,1298.81,125.04c224.1-78.14,512.81-225.19,559.96-518.61
		C2348.06,1081.85,2198.22,919.87,2045.8,819.69z M646.23,1752.49l-88.48-470.31c-0.64-0.71-1.28-2.13-2.58-2.13l-111.73,361.61
		v2.13c-43.27-24.14-82.02-58.97-119.48-99.45l190.53-652.9c0-3.55,0.65-6.39,3.23-8.53l24.54-88.8
		c52.32-31.97,111.73-51.87,169.22-73.18v10.66c-29.71,103.01-57.48,207.45-85.26,311.88l1.3,1.41l12.92-17.04l213.77-347.41
		c70.29-17.21,141.74-29.32,213.78-36.22v4.97h0.01L699.2,1200.48l120.77,610.27C761.47,1793.13,703.53,1773.7,646.23,1752.49z
		 M1009.22,946.16c-2.58,27-14.85,54.69-38.75,68.2c-13.57,9.95-32.94,9.95-49.73,7.11c-10.99-5.68-22.61-14.93-27.78-27.7
		c-6.46-20.61-1.93-44.76,7.76-63.23c20.66-31.98,63.29-48.33,93.01-23.45C1002.11,918.44,1008.57,930.53,1009.22,946.16z
		 M761.21,1456.23l102.05-390.73h114.95v8.52l-99.47,382.21H761.21z M973.69,1275.08l38.75-141.38c-9.69-9.23-21.96-0.71-32.94-4.97
		c0-8.52,3.23-19.9,6.46-29.13l179.54-152.03h21.97c-3.24,32.68-18.08,63.94-23.24,97.32l75.56,2.13
		c-2.58,24.16-15.5,49.03-21.31,74.6c-25.19,2.84-51.67,1.41-77.51,2.13c-25.84,63.94-42.63,132.85-63.94,198.9
		c-2.58,13.5-1.3,28.42,5.16,39.79c9.69,14.92,27.12,12.79,41.33,9.96c15.5-6.41,32.29-12.79,41.98-29.13
		c3.88,41.22-20.01,78.14-51.02,100.89c-36.17,25.56-94.94,25.56-130.46-2.15C942.05,1400.12,960.13,1326.22,973.69,1275.08z
		 M1549.77,1841.29l-66.52,8.51l-106.57-547.04c-1.3-1.41-1.92-2.13-3.22-2.13c-7.76,10.66-7.76,24.88-14.21,36.22l-11,39.09
		l-155,487.35c-47.79-1.41-99.47-2.84-147.26-12.06l142.73-475.29l34.24-114.37l187.3-618.79c52.35,4.25,104.65,9.93,153.74,22.01
		l0,0v0h0l-119.49,395.72c0,1.43,0.66,2.14,1.95,3.55l63.31-80.27l216.98-279.91c60.06,11.36,114.95,36.22,170.5,59.69v3.54
		l-387.5,443.31l131.75,605.29c-0.66,1.41,0.64,2.87,1.27,3.57C1614.37,1832.78,1581.42,1834.2,1549.77,1841.29z M1889.5,1128.73
		l-55.52,197.5c-1.32,9.93-5.19,24.85,2.56,32.68c13.58,1.41,22.62-8.53,32.96-13.5c-8.4,51.85-50.39,96.61-97.53,105.15
		c-13.58,0-27.79-3.54-34.25-18.47c-1.92-4.99-2.56-11.37-6.43-15.63c-27.79,36.22-74.3,44.76-113.03,32.68
		c-31.01-12.09-55.55-48.31-58.77-83.85c-5.82-61.1,30.35-110.83,75.56-141.37c43.9-36.22,102.67-36.22,141.42-83.12
		c3.24-9.95,6.46-20.6,3.24-31.27c-24.55-28.4-60.06-4.25-85.26,5.68c-24.55,13.5-49.73,25.58-72.98,42.63
		c1.95-25.58,14.21-52.57,18.74-80.27c58.1-57.56,145.3-98.75,219.58-51.15l20.69,25.58v0
		C1894.04,1072.61,1892.08,1102.44,1889.5,1128.73z M2151.71,1115.22c-22.59,6.39-52.94,2.14-79.41,2.84l-58.79,186.13
		c-3.22,15.63-7.09,39.79,3.24,52.59c9.68,13.5,27.77,10.64,41.97,8.51c14.21-6.38,29.05-12.76,40.05-28.42
		c3.22,40.5-22.62,81.72-55.55,103.73c-36.17,24.16-89.78,20.62-124-3.54c-43.93-41.22-22.62-114.39-12.92-165.55
		c15.5-47.59,26.47-97.33,38.75-146.34l-32.29-3.55l6.46-29.13l179.55-151.32h24.55l0,0c-9.7,31.26-16.8,64.64-24.55,97.32
		c23.89,4.27,48.43,2.84,76.2,2.84L2151.71,1115.22z"/>
	<path class="st1" d="M1753.23,1245.95c-20.01,42.61-10.97,107.99-60.7,126.46c-9.04-0.71-17.46-2.13-24.55-8.53
		c-8.69-11.86-11.55-27.01-7.76-41.22C1679.61,1284.31,1717.7,1258.73,1753.23,1245.95z M2030.83,1847.74
		c0-33.57,27.33-60.89,61.23-60.89c33.72,0,60.89,27.33,60.89,60.89c0,33.89-27.18,61.23-60.89,61.23
		c-33.76,0.06-61.17-27.26-61.23-61.02C2030.83,1847.88,2030.83,1847.81,2030.83,1847.74z M2145.59,1847.74
		c-0.01-29.56-23.96-53.53-53.53-53.55c-29.6-0.06-53.64,23.88-53.71,53.47c0,0.03,0,0.05,0,0.08
		c-0.65,29.61,22.83,54.14,52.44,54.8s54.14-22.83,54.79-52.44C2145.61,1849.31,2145.61,1848.52,2145.59,1847.74z M2122.44,1881.94
		h-9.93l-19.51-31.49h-15.33v31.49h-8.31v-68.25h29.71c5.75,0,11.53,0.32,16.64,3.37c5.12,2.87,7.65,8.94,7.65,14.69
		c0,13.42-9.43,18.39-21.56,18.69L2122.44,1881.94L2122.44,1881.94z M2090.47,1843.91c9.57,0,24.45,1.6,24.45-12.31
		c0-10.53-9.27-11.83-17.73-11.83h-19.51v24.14L2090.47,1843.91L2090.47,1843.91z"/>
</g>
</svg>
