<?xml version="1.0" encoding="utf-8"?>
<!-- Generator: Adobe Illustrator 28.2.0, SVG Export Plug-In . SVG Version: 6.00 Build 0)  -->
<svg version="1.1" id="Laag_1" xmlns="http://www.w3.org/2000/svg" xmlns:xlink="http://www.w3.org/1999/xlink" x="0px" y="0px"
	 viewBox="0 0 930 176" style="enable-background:new 0 0 930 176;" xml:space="preserve">
<style type="text/css">
	.st0{fill-rule:evenodd;clip-rule:evenodd;fill:#FFFFFF;}
	.st1{fill:#FFFFFF;}
</style>
<path class="st0" d="M609.38,34.38C609,34.9,609,35.61,609,37.01V54c0,0.39,0,0.69-0.02,0.94c-0.03,0.36-0.1,0.59-0.27,0.76
	c-0.13,0.13-0.29,0.2-0.52,0.24C607.91,56,607.53,56,607,56h-71c-14.14,0-21.22,0-25.61,4.39C506,64.79,506,71.86,506,86v30
	c0,14.14,0,21.21,4.39,25.61C514.78,146,521.86,146,536,146h98V26l-22.23,7.2C610.43,33.64,609.77,33.85,609.38,34.38z
	 M604.77,126.78c-1.4,0.22-3.25,0.22-5.77,0.22h-58c-4.72,0-7.07,0-8.53-1.46C531,124.07,531,121.71,531,117V85
	c0-4.71,0-7.07,1.47-8.54C533.93,75,536.28,75,541,75h68v42c0,4.71,0,7.07-1.47,8.54C606.85,126.22,605.98,126.58,604.77,126.78z"/>
<path class="st0" d="M684,146c-14.14,0-21.22,0-25.6-4.39c-4.4-4.39-4.4-11.46-4.4-25.61v-10c0-2.67,0-4.8,0.14-6.52
	c0.2-2.54,0.69-4.21,1.91-5.43c0.99-0.99,2.27-1.5,4.08-1.77c1.04-0.15,2.25-0.22,3.68-0.25C665.03,92,666.42,92,668,92h87
	c0.32,0,0.59,0,0.81-0.01c0.17-0.01,0.32-0.02,0.44-0.05c0.19-0.04,0.34-0.11,0.45-0.23c0.14-0.14,0.22-0.32,0.25-0.58
	c0.02-0.13,0.03-0.27,0.03-0.43l0.01-0.27V85c0-1.06,0-2.01-0.02-2.85c-0.03-1.32-0.09-2.38-0.27-3.25
	c-0.12-0.6-0.29-1.11-0.52-1.55c-0.17-0.33-0.39-0.62-0.66-0.89C754.07,75,751.72,75,747,75h-93V56h98c14.14,0,21.22,0,25.6,4.39
	C782,64.79,782,71.86,782,86v60H684z M757,110h-69.5c-3.27,0-4.91,0-6.11,0.74c-0.27,0.17-0.52,0.36-0.75,0.57
	c-0.1,0.09-0.2,0.19-0.3,0.29c-0.08,0.09-0.16,0.18-0.23,0.28c-0.13,0.16-0.25,0.34-0.36,0.52c-0.74,1.2-0.74,2.84-0.74,6.11
	c0,2.26,0,3.74,0.24,4.83c0.11,0.49,0.27,0.9,0.5,1.28c0.41,0.67,0.98,1.24,1.65,1.65c1.2,0.74,2.84,0.74,6.11,0.74H747l1.93,0
	c0.76-0.01,1.45-0.02,2.08-0.05c2.19-0.11,3.56-0.43,4.53-1.41c0.56-0.56,0.91-1.26,1.12-2.16C757,121.91,757,119.9,757,117V110z"/>
<path class="st0" d="M826.96,166.58c-0.02,0.26-0.07,0.48-0.14,0.68c-0.05,0.13-0.11,0.26-0.2,0.37c-0.38,0.53-1.05,0.74-2.38,1.18
	L802,176V56h98c14.14,0,21.22,0,25.6,4.39C930,64.79,930,71.86,930,86v30c0,14.14,0,21.21-4.4,25.61C921.22,146,914.14,146,900,146
	h-71c-0.27,0-0.51,0-0.71,0.01c-0.2,0.01-0.37,0.02-0.51,0.05c-0.21,0.04-0.36,0.11-0.49,0.24c-0.16,0.15-0.23,0.36-0.26,0.65
	C827,147.21,827,147.55,827,148v16.99l0,0.77C826.99,166.07,826.98,166.34,826.96,166.58z M831.07,75.25
	c-1.13,0.2-1.96,0.56-2.61,1.21C827,77.93,827,80.29,827,85v42h68c4.72,0,7.07,0,8.53-1.46c1.47-1.47,1.47-3.82,1.47-8.54V85
	c0-4.71,0-7.07-1.47-8.54C902.07,75,899.72,75,895,75h-58c-1.72,0-3.13,0-4.3,0.07C832.1,75.11,831.56,75.17,831.07,75.25z"/>
<path class="st0" d="M456,56c14.14,0,21.21,0,25.61,4.39C486,64.79,486,71.86,486,86v10c0,6.6,0,9.9-2.05,11.95
	C481.9,110,478.6,110,472,110h-87c-0.94,0-1.41,0-1.71,0.29S383,111.06,383,112v5c0,4.71,0,7.07,1.46,8.54
	c1.46,1.46,3.82,1.46,8.54,1.46h93v19h-98c-14.14,0-21.21,0-25.61-4.39C358,137.21,358,130.14,358,116V86
	c0-14.14,0-21.21,4.39-25.61C366.79,56,373.86,56,388,56H456z M383,92h69.5c3.27,0,4.91,0,6.11-0.74c0.67-0.41,1.24-0.98,1.65-1.65
	c0.24-0.39,0.4-0.82,0.51-1.34C461,87.18,461,85.72,461,83.5c0-1.44,0-2.56-0.06-3.47c-0.08-1.16-0.26-1.97-0.68-2.64
	c-0.41-0.67-0.98-1.24-1.65-1.65C457.41,75,455.77,75,452.5,75H393c-4.71,0-7.07,0-8.54,1.46C383,77.93,383,80.29,383,85V92z"/>
<path class="st1" d="M331.55,62.44C325.11,56,314.74,56,294,56h-84v90h25V85c0-4.71,0-7.07,1.46-8.54C237.93,75,240.29,75,245,75h48
	c9.43,0,14.14,0,17.07,2.93C313,80.86,313,85.57,313,95v51h25v-46C338,79.26,338,68.89,331.55,62.44z"/>
<path class="st1" d="M93.09,55.84c3.83,0,5.74,0,6.81-1.23c1.07-1.23,0.8-3.12,0.26-6.91L94.29,6.41c-0.42-2.92-0.63-4.39-1.63-5.25
	c-1.01-0.88-2.48-0.88-5.43-0.88h-4.44c-2.95,0-4.43,0-5.43,0.88c-1.01,0.88-1.22,2.33-1.63,5.25L69.85,47.7
	c-0.54,3.79-0.81,5.68,0.26,6.91c1.07,1.23,2.98,1.23,6.81,1.23H93.09z"/>
<path class="st1" d="M57.46,69.97c1.19-3.64,1.77-5.45,0.94-6.85c-0.84-1.4-2.72-1.73-6.49-2.38l-41.09-7.18
	c-2.91-0.51-4.37-0.76-5.5-0.08c-1.14,0.69-1.6,2.09-2.51,4.9L1.43,62.6c-0.92,2.81-1.37,4.21-0.85,5.43
	c0.52,1.23,1.84,1.87,4.5,3.17l37.45,18.35c3.44,1.69,5.16,2.52,6.65,1.88s2.09-2.45,3.27-6.09L57.46,69.97z"/>
<path class="st1" d="M59.89,108.22c-3.09-2.25-4.65-3.37-6.23-3c-1.59,0.37-2.48,2.05-4.27,5.44l-19.52,36.84
	c-1.39,2.61-2.07,3.92-1.77,5.21c0.3,1.3,1.5,2.16,3.89,3.9l3.59,2.6c2.39,1.74,3.58,2.6,4.91,2.49c1.33-0.12,2.35-1.18,4.41-3.3
	l29.02-29.95c2.66-2.75,3.99-4.12,3.85-5.74c-0.14-1.62-1.69-2.74-4.79-5L59.89,108.22z"/>
<path class="st1" d="M97.01,117.73c-3.09,2.25-4.65,3.37-4.79,5s1.19,2.99,3.85,5.74l29.02,29.95c2.05,2.12,3.08,3.18,4.41,3.3
	c1.33,0.12,2.52-0.75,4.91-2.49l3.59-2.6c2.39-1.74,3.58-2.6,3.89-3.9c0.31-1.3-0.39-2.6-1.78-5.21l-19.5-36.85
	c-1.79-3.38-2.68-5.08-4.27-5.43c-1.58-0.37-3.13,0.76-6.23,3L97.01,117.73z"/>
<path class="st1" d="M117.54,85.37c1.19,3.64,1.78,5.45,3.27,6.09c1.5,0.64,3.22-0.21,6.65-1.89l37.45-18.35
	c2.65-1.3,3.98-1.94,4.5-3.17c0.52-1.23,0.06-2.63-0.85-5.43l-1.37-4.22c-0.92-2.81-1.37-4.21-2.51-4.9
	c-1.14-0.69-2.59-0.43-5.5,0.08l-41.08,7.18c-3.77,0.66-5.65,0.99-6.49,2.38c-0.84,1.4-0.25,3.21,0.94,6.85L117.54,85.37z"/>
</svg>
