<?xml version="1.0" encoding="utf-8"?>
<!-- Generator: Adobe Illustrator 28.2.0, SVG Export Plug-In . SVG Version: 6.00 Build 0)  -->
<svg version="1.1"
	 id="svg2" xmlns:svg="http://www.w3.org/2000/svg" xmlns:inkscape="http://www.inkscape.org/namespaces/inkscape" xmlns:sodipodi="http://sodipodi.sourceforge.net/DTD/sodipodi-0.dtd" inkscape:version="1.1 (c68e22c387, 2021-05-23)" sodipodi:docname="Samsung_wordmark.svg"
	 xmlns="http://www.w3.org/2000/svg" xmlns:xlink="http://www.w3.org/1999/xlink" x="0px" y="0px" viewBox="0 0 7051.4 1080"
	 style="enable-background:new 0 0 7051.4 1080;" xml:space="preserve">
<style type="text/css">
	.st0{fill:#FFFFFF;}
</style>
<sodipodi:namedview  bordercolor="#666666" borderopacity="1.0" fit-margin-bottom="0" fit-margin-left="0" fit-margin-right="0" fit-margin-top="0" id="namedview11" inkscape:current-layer="svg2" inkscape:cx="2849.7664" inkscape:cy="1429.0617" inkscape:pagecheckerboard="0" inkscape:pageopacity="0.0" inkscape:pageshadow="2" inkscape:window-height="1017" inkscape:window-maximized="1" inkscape:window-width="1920" inkscape:window-x="1912" inkscape:window-y="-8" inkscape:zoom="0.059829465" pagecolor="#ffffff" showgrid="false">
	</sodipodi:namedview>
<g id="g12">
	<g id="g18" transform="translate(558.9328,88.5098)">
		<path id="path20" class="st0" d="M6135.9,385.8v147h103.3v145.9c0.3,13-0.4,27.1-2.6,38.3c-4.1,27.2-30,73.5-103.3,73.5
			c-72.9,0-98.3-46.3-102.7-73.5c-1.9-11.2-2.6-25.3-2.6-38.3V218c0-16.3,1.1-34.1,4.6-47.6c5-24.6,26.8-73,100.2-73
			c77.1,0,96.4,51.1,100.8,73c2.9,14.5,3.1,38.9,3.1,38.9v55.9h253.9v-33.1c0,0,1.2-34.5-1.9-66.7
			C6469.4-23.7,6313.6-83.5,6135-83.5c-179,0-331.6,60.4-353.9,248.9c-2,17.2-5.1,48.3-5.1,66.7v423.8c0,18.5,0.6,32.7,4,66.5
			c16.6,183.9,175.9,249.1,354.2,249.1c179.4,0,337.6-65.2,354.5-249.1c3-33.7,3.3-48,3.7-66.5V385.8H6135.9z M4385.4-56.4h-254.9
			v745.7c0.4,13,0,27.6-2.2,38.3c-5.3,25-26.5,73.2-96.9,73.2c-69.4,0-91.2-48.2-96.1-73.2c-2.6-10.7-2.9-25.3-2.6-38.3V-56.4
			h-254.9v722.6c-0.3,18.6,1.1,56.7,2.2,66.6c17.6,188.3,166,249.4,351.3,249.4c185.7,0,334-61.1,351.9-249.4
			c1.4-10,3.3-48,2.2-66.6L4385.4-56.4z M2042.9-56.4l-127.2,788l-127.1-788h-411.2l-21.8,1008.1h251.9l6.8-933.2l173.3,933.2h255.6
			l173.5-933.2l6.8,933.2h252.6L2453.7-56.4H2042.9z M520.3-56.4L333.6,951.7h272.3L746.6,18.5l137.3,933.2h270.4L968.4-56.4H520.3z
			 M5276.4,755.2L5039-56.4h-374.1v997.5h247.5L4898,103.6L5153,941.2h358.8V-56.4h-249.1L5276.4,755.2z M2987.4,206
			c-4.5-19.9-3.2-41.1-0.9-52.1c7.2-32.3,28.9-67.5,91.4-67.5c58.2,0,92.4,36.3,92.4,90.8v61.6h248.5v-70.3
			c0-217.2-194.7-251.3-335.7-251.3c-177.6,0-322.6,58.5-349.1,222c-7,44.5-8.7,84,2.4,134.3c43.2,203.8,397.9,262.9,449.4,391.8
			c9.1,24.4,6.5,55.5,1.9,73.9c-7.7,33.5-30.3,67.3-97.2,67.3c-62.7,0-100.5-36.1-100.5-90.4l-0.1-96.7h-267.5v76.9
			c0,222.8,174.5,290.1,362.5,290.1c180,0,328.7-61.5,352.6-228.3c11.4-86.2,2.8-142.3-1.8-163.4
			C3394.1,385.5,3016,322.6,2987.4,206 M-291,203.5c-4.9-20.3-3.7-41.8-1-53c6.9-32.1,28.7-67.9,92.3-67.9c59,0,93.7,36.6,93.7,91.6
			v62.4h251.4v-70.8c0-219.3-197.7-254.2-340.2-254.2c-179.1,0-325.4,59.4-352.1,224c-7.3,45.2-8.6,84.9,2,135.9
			c43.6,206.1,401.9,265.7,454,396.1c9.8,24.2,6.8,55.4,2,74.4c-8.3,33.9-31,68.1-98.5,68.1c-63,0-100.6-36.7-100.6-91.8l-0.3-97
			h-270.5v77.1c0,225.4,177,293.2,366.5,293.2c182.1,0,331.7-62.1,356.1-230.8c12.1-87,3-143.5-1.1-165
			C120,384.1-262.3,321.5-291,203.5"/>
	</g>
</g>
</svg>
