<?xml version="1.0" encoding="UTF-8"?>
<svg xmlns="http://www.w3.org/2000/svg" version="1.1" viewBox="0 0 1080 1080">
  <defs>
    <style>
      .cls-1 {
        fill: #fff;
      }
    </style>
  </defs>
  <!-- Generator: Adobe Illustrator 28.6.0, SVG Export Plug-In . SVG Version: 1.2.0 Build 709)  -->
  <g>
    <g id="Laag_2">
      <g>
        <path class="cls-1" d="M66.8,663.2v-250.3c.6,0,1.3,0,1.9,0,30.5,0,61.1,0,91.6,0,1.1,0,2.2.2,3.3.7,41.2,16.9,82.4,33.8,123.6,50.7,1.1.4,1.7.9,1.7,2.2,0,65.4,0,130.8,0,196.2,0,.1,0,.3,0,.6H66.8ZM256,550.5c0,.1.2.2.3.3-.1.5-.2,1.1-.4,1.6-7.4,20.5-14.9,41-22.3,61.5-.2.6-.4,1.3-.7,2.2,6.1-1.7,11.9-3.2,17.6-4.9.8-.2,1.8-1.1,2-2,7.2-20.2,14.2-40.5,21.3-60.7.2-.6.5-1.3.3-1.8-1-3.9-2-7.7-3.1-11.7-22.7,6.1-45.2,12.1-67.8,18.2,1,3.7,1.9,7.1,2.8,10.5.7-.2,1.1-.2,1.5-.3,16.1-4.3,32.2-8.5,48.3-12.8ZM108.7,639.4c-.4-2.3-.9-4.5-1.1-6.7-.3-2.5.6-4.4,3-5.5,4.2-2,8.4-4,12.6-5.9,5.1-2.3,10.3-4.5,15.5-6.8,1.1,3.9,2.1,7.7,3.2,11.5,16.6-4.4,32.8-8.8,49.2-13.2,1.3,4.8,2.6,9.5,3.9,14.1,5.9-1.6,11.4-3.1,17.2-4.6-1.3-4.7-2.5-9.3-3.8-14.1,7.2-1.9,14.3-3.8,21.6-5.8-.8-3.2-1.7-6.3-2.5-9.6-7.3,1.9-14.4,3.8-21.6,5.7-3.8-14.1-7.5-28.1-11.3-42.1-8.4,2.2-16.5,4.4-24.6,6.5-1.6.4-2.5,1.2-3.4,2.5-4.7,7.7-9.4,15.4-14.2,23.1-.4.6-.8,1.2-1.1,1.6-1.4-3-2.5-6-4.1-8.7-2.2-3.8-5.7-6.1-10.1-6.7-1.7-.2-3.4-.3-5.1-.2-9.4.3-18.5,2.6-27.3,5.5-5.6,1.8-11,4.3-16.3,6.9-4.3,2.1-6.7,6-7.3,10.8-.5,4.6.4,9,1.9,13.3,5.7-1.5,11.2-3,16.5-4.4-.4-3.1-.9-6-1.1-8.8-.2-2.4,1-4.3,3.2-5.3,7.7-3.6,15.9-5.9,24.4-6.5,2.8-.2,4.9,1.1,5.9,3.6,1,2.5,1.8,5,2.3,7.6.9,4.5.1,6.4-4,8.4-6.1,3-12.5,5.5-18.7,8.5-5.6,2.7-11.1,5.5-16.5,8.5-4,2.3-5.8,6.1-5.5,10.7.1,2.1.4,4.2.9,6.3,1.1,4.7,2.4,9.4,3.7,14.2,17.3-4.6,34.4-9.2,51.6-13.8-.9-3.4-1.8-6.6-2.7-9.9-11.5,3.1-22.7,6.1-34.4,9.2Z"/>
        <path class="cls-1" d="M754.4,595.2h98.1v20.5h-98.6c.3,5.4.3,10.6.9,15.7.7,5.7,3.8,8.7,9.5,9.5,3.1.4,6.3.6,9.5.6,34.2,0,68.4,0,102.6,0,.7,0,1.4,0,2.2,0-3.1-14.7-1.5-29.4-1.8-44-.2-15.7,0-31.4,0-47.1s0-1.5,0-2.4h25.7v2.2c0,23.7,0,47.4,0,71.1,0,2.4,0,4.8.4,7.2,1.2,7.8,5.1,11.5,13,12.4,2.9.3,5.9.5,8.9.5,28.8,0,57.7,0,86.5,0h2.5v22c-.5,0-1.1,0-1.7,0-80.3,0-160.5,0-240.8,0-7.1,0-14.1-.6-21-2.4-12.1-3.1-18.7-11.1-20.6-23.1-.7-4.5-1.1-9-1.1-13.5,0-14.7,0-29.4.2-44.2,0-3.4.8-6.7,1.3-10.2-.7,0-1.4,0-2.1,0-35.8,0-71.5,0-107.3,0-.9,0-1.9,0-2.8.2-7.2,1.3-10.4,4.6-11,11.9-.3,4.3,0,8.6,0,13.2h98.2v20.5h-98.7c.4,5.7.4,11.3,1.2,16.8.7,5.1,4.5,7.7,9.4,8.3,3.3.4,6.6.6,9.9.6,25.5,0,51,0,76.5,0s1.5,0,2.4,0v21.8c-.5,0-1.1,0-1.6,0-26.8,0-53.7,0-80.5,0-7,0-14-.6-20.8-2.4-12-3.1-18.7-10.9-20.5-22.9-.8-5.2-1.1-10.4-1.2-15.6-.2-12.2-.2-24.4,0-36.5,0-5.3.8-10.5,1.3-15.8h-68.1v93.2h-26v-93.7h-2.3c-45.1,0-90.2,0-135.4,0-1.8,0-3.5.1-5.3.4-3.9.5-6.5,2.7-7,6.6-.4,3.6-.5,7.4-.2,11,.4,4.4,2.8,6.5,7.2,7,1.8.2,3.7.3,5.5.3,19.4,0,38.8,0,58.2.3,4.7,0,9.6,1.1,14.1,2.5,8.1,2.4,13,8.3,14.4,16.5,1.7,9.9,1.7,19.9,0,29.8-1.9,10.6-9.1,16.2-19.4,18.1-4.2.8-8.6,1.3-12.9,1.3-30,.1-59.9,0-89.9,0h-1.2v-21.8h2.5c27.9,0,55.8,0,83.7,0,2.5,0,5.1,0,7.6-.5,4.6-.8,6.5-2.9,6.9-7.5.3-3.2.3-6.4,0-9.5-.4-4.9-2.9-7.4-7.8-8.1-1.9-.3-3.8-.4-5.7-.4-18.7,0-37.4,0-56.1-.1-4.7,0-9.5-.7-14.1-1.7-9-2-14.6-7.8-16.1-17-1.6-9.6-1.6-19.2.2-28.7,2.3-11.7,9.7-18.2,21.9-19.6,2.8-.3,5.6-.5,8.5-.5,161.9,0,323.8,0,485.8,0h2.6v22.2c-.8,0-1.6,0-2.3,0-21.3,0-42.6,0-64,0-2.5,0-5.1.7-7.4,1.6-4.4,1.8-5.8,5.9-6.1,10.2-.3,4.3,0,8.7,0,13.4Z"/>
        <path class="cls-1" d="M599.1,412.8h25.6v2.2c0,24,0,48,0,72,0,3.2.3,6.4,1.1,9.4,1.1,5,4.7,7.8,9.6,8.8,3.3.7,6.7,1,10.1,1,26.6,0,53.1,0,79.7,0,.5,0,1,0,1.5,0-.4-2.9-1-5.6-1.3-8.4-.3-3.9-.4-7.9-.4-11.9,0-11.8-.1-23.6,0-35.5,0-4.6.5-9.2,1.4-13.7,2.4-12.8,10.5-20,23-22.2,5.9-1,11.9-1.6,17.9-1.7,15.7-.2,31.4-.3,47.2,0,6.6.1,13.3.7,19.8,2.1,13,2.8,20.1,10.8,21.9,24,.6,4.2.9,8.4.9,12.7.1,12.9.2,25.8,0,38.6,0,5.3-.8,10.5-1.3,15.9h20.3v-93.3c.7,0,1.4-.1,2-.1,30.4,0,60.8,0,91.1,0,8,0,16,.6,23.7,2.8,10.4,3,16.6,9.8,18.4,20.5,1.6,9.7,1.7,19.5.2,29.2-1.9,12.4-9.8,19.5-21.8,21.7-7.2,1.3-14.6,1.8-21.9,2.2-7,.4-14,0-21.1.4,22.1,12.8,44.3,25.6,66.8,38.6-.8,0-1.3.2-1.8.2-13.6,0-27.2,0-40.8,0-1,0-2.2-.4-3.1-1-21.3-13.2-42.5-26.4-63.8-39.6-.6-.4-1.3-.8-2.2-1.3v41.9h-2.3c-85.5,0-171,0-256.5,0-7.2,0-14.4-.4-21.5-2.1-12.8-3.3-19.8-11-21.6-24.1-.6-4.2-.9-8.5-.9-12.7,0-25.1,0-50.1,0-75.2v-1.4ZM791.1,506.2s0,0,0,0c6.5,0,13,0,19.5,0,3.2,0,6.4-.1,9.5-.5,6-.8,9.3-3.8,10.5-9.5.3-1.4.5-2.9.6-4.4.1-7.4.2-14.9.2-22.3,0-6.9,0-13.7-.2-20.6-.3-8.5-4.5-12.8-12.7-13.7-2.4-.3-4.8-.4-7.2-.4-13.5,0-27,0-40.6,0-2.5,0-5,.2-7.4.4-8.1.8-12.1,4.5-12.4,12.6-.4,10.8-.3,21.6-.4,32.5,0,4.7,0,9.3.4,14,.5,6.7,3.7,10.2,10.2,11.3,1.7.3,3.5.5,5.3.5,8.2,0,16.4,0,24.6,0ZM901.9,469.7c.6,0,1.1,0,1.6,0,21,0,42.1,0,63.1,0,3,0,6.1-.2,9.1-.5,6.6-.7,10.2-3.7,10.6-9.3.4-5.3.3-10.6,0-15.9-.3-4.4-2.8-7.5-7.2-8.3-3.9-.7-8-1.2-12-1.2-21.1-.1-42.2,0-63.3,0-.6,0-1.2,0-1.9,0v35.1Z"/>
        <path class="cls-1" d="M542,528.3c-9.8,0-19.2,0-28.6,0-.7,0-1.7-.8-2.2-1.5-5-7.8-10-15.6-14.9-23.5-.7-1.1-1.4-1.5-2.7-1.5-25.6,0-51.1,0-76.7,0-1.3,0-2,.5-2.6,1.6-4.8,7.8-9.6,15.6-14.5,23.4-.4.7-1.4,1.4-2.2,1.4-9.3,0-18.7,0-28.4,0,19.6-31.1,39-62.1,58.6-93.2h-87.1v93.1h-26v-93.3c-4,0-7.9-.3-11.7,0-10.9.9-21-1.2-30.9-5.9-8.1-3.9-16.7-6.8-25.1-10.2q-4-1.6-3.5-6.1h2.2c74.3,0,148.6,0,222.9,0,1.6,0,2.5.5,3.3,1.8,22.9,37.3,45.9,74.5,68.8,111.7.4.6.7,1.2,1.3,2.1ZM483.2,481.9c-9.4-15.3-18.6-30.3-28-45.5-9.4,15.2-18.6,30.3-27.9,45.5h55.9Z"/>
        <path class="cls-1" d="M553.6,412.8h25.5v115.4h-25.5v-115.4Z"/>
        <path class="cls-1" d="M153.3,612.6c8.9-14.5,17.4-28.4,26.3-42.8,3.1,11.5,6,22.3,9,33.4-11.7,3.1-23.2,6.2-35.3,9.4Z"/>
      </g>
    </g>
  </g>
</svg>