<?xml version="1.0" encoding="UTF-8"?>
<svg xmlns="http://www.w3.org/2000/svg" xmlns:svg="http://www.w3.org/2000/svg" xmlns:sodipodi="http://sodipodi.sourceforge.net/DTD/sodipodi-0.dtd" xmlns:rdf="http://www.w3.org/1999/02/22-rdf-syntax-ns#" xmlns:inkscape="http://www.inkscape.org/namespaces/inkscape" xmlns:dc="http://purl.org/dc/elements/1.1/" xmlns:cc="http://creativecommons.org/ns#" version="1.1" viewBox="0 0 428.2 173.4">
  <defs>
    <style>
      .cls-1 {
        fill: #fff;
      }
    </style>
  </defs>
  <!-- Generator: Adobe Illustrator 28.6.0, SVG Export Plug-In . SVG Version: 1.2.0 Build 709)  -->
  <g>
    <g id="Layer_1">
      <sodipodi:namedview id="namedview29" bordercolor="#666666" borderopacity="1" gridtolerance="10" guidetolerance="10" inkscape:current-layer="Layer_1" inkscape:cx="345.9452" inkscape:cy="56.924817" inkscape:pageopacity="0" inkscape:pageshadow="2" inkscape:window-height="745" inkscape:window-maximized="1" inkscape:window-width="1366" inkscape:window-x="-8" inkscape:window-y="-8" inkscape:zoom="1.0502959" objecttolerance="10" pagecolor="#ffffff" showgrid="false"/>
      <g id="g855">
        <path id="path4" class="cls-1" d="M241.2,3.9v41.5c0,1.9-1.6,3.2-3.2,3.2s-3.2-1.6-3.2-3.2V3.9c0-1.9,1.6-3.2,3.2-3.2s3.2,1.6,3.2,3.2ZM177.3,13.4h-9.5V3.9c0-1.9-1.3-3.2-3.2-3.5-1.9.3-3.5,1.6-3.5,3.5v41.2c0,1.9,1.3,3.2,3.2,3.5,1.9,0,3.5-1.3,3.5-3.2v-25.7h9.5c1.9,0,3.2-1.6,3.2-3.2s-1.6-3.2-3.2-3.2ZM214.3,31.1c0-7-4.7-12-11.1-12s-11.4,5.1-11.4,12,5.1,12,11.4,12,11.1-5.1,11.1-12ZM202.9,49.2c-10.1,0-17.4-8.6-17.4-18.4s7.3-18.4,17.4-18.4,8.5,1.9,11.4,5.1v-1c0-1.9,1.6-3.2,3.2-3.2s3.2,1.6,3.2,3.2v28.9c0,1.9-1.6,3.2-3.2,3.2s-3.2-1.6-3.2-3.2v-1c-2.8,3.2-7,4.8-11.4,4.8ZM328.4,31.1c0-7-4.7-12-11.1-12s-11.4,5.1-11.4,12,5.1,12,11.4,12,11.1-5.1,11.1-12ZM317,49.2c-10.1,0-17.4-8.6-17.4-18.4s7.3-18.4,17.4-18.4,8.5,1.9,11.4,5.1v-1c0-1.9,1.6-3.2,3.2-3.2s3.2,1.6,3.2,3.2v28.9c0,1.9-1.6,3.2-3.2,3.2s-3.2-1.6-3.2-3.2v-1c-2.8,3.2-7,4.8-11.4,4.8ZM272.8,43.2c6.3,0,11.4-5.1,11.4-12s-5.1-12-11.4-12-11.1,5.1-11.1,12,4.7,12,11.1,12ZM261.7,44.4v14.6c0,1.9-1.6,3.2-3.2,3.2s-3.2-1.6-3.2-3.2V16.5c0-1.9,1.6-3.2,3.2-3.2s3.2,1.6,3.2,3.2v1c3.2-3.2,7-5.1,11.4-5.1,10.1,0,17.4,8.6,17.4,18.4s-7.3,18.4-17.4,18.4-8.2-1.6-11.4-4.8ZM260.1,91.4h-7.6v-9.5c0-1.9-1.3-3.2-3.2-3.5-1.9,0-3.5,1.3-3.5,3.2v41.2c0,1.9,1.3,3.2,3.2,3.5,1.9,0,3.5-1.3,3.5-3.2v-25.7h7.6c1.9,0,3.2-1.6,3.2-3.2s-1.6-2.9-3.2-2.9ZM343.6,127.2c-10.1,0-18-8.6-18-18.4s7.9-18.4,18-18.4,18,8.6,18,18.4-7.9,18.4-18,18.4ZM343.6,121.2c6.3,0,11.4-5.1,11.4-12s-5.4-12-11.4-12-11.4,5.1-11.4,12,5.1,12,11.4,12ZM236.1,109.1c0-9.8-6.3-18.4-16.4-18.4s-17.7,8.6-17.7,18.4,7.6,18.4,17.7,18.4,9.5-1.3,12.6-4.4,1.3-3.2.3-4.1c-1.3-1.3-2.8-1-4.1,0-2.2,1.6-5.7,2.5-8.9,2.5-5.4,0-9.8-3.8-11.1-8.9h24.3c1.9-.6,3.2-1.9,3.2-3.5h0ZM219.7,97.1c5.4,0,9.2,3.8,9.8,9.2h-20.9c1.3-5.4,5.7-9.2,11.1-9.2ZM426.7,121.5l-10.4-13.3,9.8-11.4c1.3-1.3.9-3.5-.3-4.4-1.3-1.3-3.5-1-4.4.3l-10.4,12.7h-5.7v-23.1c0-1.9-1.6-3.2-3.2-3.2s-3.2,1.6-3.2,3.2v41.5c0,1.9,1.6,3.2,3.2,3.2s3.2-1.6,3.2-3.2v-12h5.7l11.4,14.3c.9,1.3,3.2,1.6,4.4.6.9-1.6,1.3-3.8,0-5.1Z" inkscape:connector-curvature="0"/>
        <ellipse id="circle6" class="cls-1" cx="18" cy="20.3" rx="18" ry="18.1"/>
        <ellipse id="circle8" class="cls-1" cx="62.6" cy="20.3" rx="18" ry="18.1"/>
        <ellipse id="circle10" class="cls-1" cx="107.5" cy="20.3" rx="18" ry="18.1"/>
        <ellipse id="circle12" class="cls-1" cx="18" cy="65.4" rx="18" ry="18.1"/>
        <ellipse id="circle14" class="cls-1" cx="62.6" cy="65.4" rx="18" ry="18.1"/>
        <ellipse id="circle16" class="cls-1" cx="107.5" cy="65.4" rx="18" ry="18.1"/>
        <ellipse id="circle18" class="cls-1" cx="18" cy="110.4" rx="18" ry="18.1"/>
        <ellipse id="circle20" class="cls-1" cx="62.6" cy="110.4" rx="18" ry="18.1"/>
        <ellipse id="circle22" class="cls-1" cx="107.5" cy="110.4" rx="18" ry="18.1"/>
        <ellipse id="circle24" class="cls-1" cx="62.6" cy="155.4" rx="18" ry="18.1"/>
        <path id="path26" class="cls-1" d="M161.2,123.4v-17.1c0-9.5,7-15.5,16.1-15.5s16.1,6,16.1,15.5v17.1c0,1.9-1.6,3.2-3.2,3.2s-3.2-1.6-3.2-3.2v-16.8c0-6-4.4-9.8-9.5-9.8s-9.8,3.8-9.8,9.8v16.8c0,1.9-1.6,3.2-3.2,3.2s-3.5-1.3-3.5-3.2ZM278.2,122.1c.6,2.5,2.2,4.4,5.1,4.4s4.1-2.2,4.7-4.4l7-21.6,7,21.6c.6,2.5,2.2,4.4,4.7,4.4s4.1-2.2,5.1-4.4l8.9-26.3c.6-1.6-.3-3.5-1.9-4.1-1.6-.6-3.5.3-4.1,1.9l-7.9,24.1-7-22.2c-.6-2.5-1.6-4.1-4.7-4.1s-3.8,1.6-4.7,4.1l-7,22.2-8.2-24.1c-.6-1.6-2.5-2.5-4.1-1.9-1.6.6-2.5,2.5-1.9,4.1l9.2,26.3ZM388.2,91.4c1.6,0,3.2,1.3,3.2,3.2s-1.3,3.2-3.2,3.2h-5.4c-3.5,0-6.3,2.9-6.3,6.3v19.3c0,1.9-1.6,3.2-3.2,3.2s-3.2-1.6-3.2-3.2v-19.3c0-7,5.7-12.4,12.3-12.4h5.7v-.3Z" inkscape:connector-curvature="0"/>
      </g>
    </g>
  </g>
</svg>